<?xml version="1.0" encoding="UTF-8"?>
<svg width="115px" height="53px" viewBox="0 0 115 53" version="1.1" xmlns="http://www.w3.org/2000/svg" xmlns:xlink="http://www.w3.org/1999/xlink">
    <!-- Generator: Sketch 52.5 (67469) - http://www.bohemiancoding.com/sketch -->
    <title>Logo</title>
    <desc>Created with Sketch.</desc>
    <g id="new" stroke="none" stroke-width="1" fill="none" fill-rule="evenodd">
        <g id="Logo" transform="translate(0.158644, 0.833032)" fill="#FDFDFE">
            <path d="M20.4668151,49.0276367 L0.905526196,15.1473076 C-0.842905904,12.1179516 1.34286279,8.33247574 4.84003176,8.33247574 L43.9623047,8.33247574 C47.4594737,8.33247574 49.6452424,12.1179516 47.8962008,15.1473076 L28.3355214,49.0276367 C26.5873941,52.0563831 22.2152472,52.0563831 20.4668151,49.0276367 Z M22.648378,24.431034 C22.5813299,24.1771654 22.517939,23.9239064 22.4585099,23.6739998 C22.0412878,21.9155105 21.7606,20.0726015 21.6246751,18.1961684 C21.5515317,17.1773418 21.5198363,16.1414483 21.5308078,15.1122597 C22.1083359,16.3761167 22.5081865,17.6835551 22.7215214,19.0034887 C23.0086093,20.7494827 22.9842281,22.5734963 22.648378,24.431034 Z M27.7830449,26.5674309 C27.6919204,26.5726119 27.6193866,26.5570689 27.5599575,26.5217163 C27.5014428,26.4866684 27.4496329,26.4299823 27.4008706,26.3483055 C27.295727,26.1748946 27.2271551,25.8948164 27.2210598,25.6153476 C27.2183169,25.4775942 27.2295932,25.3374027 27.2533648,25.2109255 C27.2558029,25.1953826 27.2597648,25.1798396 27.2628125,25.1636871 C27.2914603,25.1993445 27.3194986,25.236221 27.3463179,25.2740117 C27.4206803,25.3785458 27.489557,25.4949658 27.5502051,25.6208334 C27.6794251,25.8911592 27.7787782,26.2068949 27.8449121,26.5613356 C27.82175,26.5640785 27.8022451,26.5662119 27.7830449,26.5674309 Z M32.9308167,21.0228562 L32.9116165,21.0594279 C32.1359917,22.2321605 31.2021943,23.5907992 30.1568531,24.7821223 C29.8831749,25.091458 29.6314397,25.3535552 29.3879331,25.5839569 C29.3662948,25.6037666 29.3443518,25.623881 29.3236279,25.6433859 C29.1831316,25.2444496 29.009416,24.8939708 28.7933382,24.575797 C28.7003851,24.4398722 28.5967653,24.3085188 28.4861359,24.1847845 C28.3492968,24.0333168 28.2289149,23.9193349 28.0920758,23.8157151 C27.9241507,23.6907618 27.7287969,23.5661133 27.4414043,23.5024176 C27.2759173,23.4676744 27.096716,23.4670649 26.9385434,23.5024176 C26.774885,23.5365511 26.6103124,23.6130469 26.4746923,23.7181906 C26.2311857,23.9092777 26.1135467,24.1210888 26.0306509,24.3036426 C25.9608599,24.4630342 25.9127072,24.6279117 25.877964,24.8241798 C25.8264589,25.123763 25.8206684,25.4282224 25.8599829,25.7555391 C25.8999071,26.076151 25.9773172,26.3629341 26.0973942,26.6323457 C26.2497763,26.9733768 26.4484826,27.2345597 26.703875,27.4308278 C26.8544285,27.5457239 27.0272298,27.6341055 27.2027739,27.6862202 C27.3713085,27.7368111 27.5550813,27.757535 27.7367208,27.747173 C27.8028546,27.7432111 27.8674646,27.735592 27.9348175,27.7246205 C27.9271984,28.2095003 27.8705122,28.7010849 27.7659781,29.1893171 C27.6318819,29.8140837 27.4264708,30.3809451 27.1753451,30.8277294 L27.0991541,30.9551208 C27.0735539,30.9929116 27.0479537,31.0303976 27.0205249,31.0663597 C26.9653626,31.142246 26.9056288,31.2095989 26.8461998,31.2681136 C26.7099702,31.3997717 26.5597215,31.4851057 26.4109966,31.5152774 C26.2628812,31.5466681 26.0931275,31.5189345 25.9376978,31.4390863 C25.8051254,31.3711239 25.6746863,31.2696374 25.5402853,31.1285316 C25.5098089,31.0977504 25.4817706,31.0657502 25.4537323,31.0334452 C25.4259988,31.0017497 25.3802841,30.9459779 25.3415791,30.8963013 C25.2605118,30.792072 25.1806636,30.6829664 25.1059964,30.5720322 C24.9621477,30.3586973 24.8167752,30.1185431 24.6750598,29.857665 C24.4321628,29.4111855 24.1947515,28.9068008 23.9509401,28.3164725 C23.8326916,28.0293847 23.7150527,27.7288872 23.599547,27.4216849 C23.8165391,26.6542887 23.9896452,25.8795782 24.1155128,25.1201058 C24.479706,22.9322038 24.4553248,20.793064 24.0423694,18.761506 C23.6437378,16.768653 22.8635415,14.8483339 21.719152,13.0511395 C21.6225418,12.916129 21.5055123,12.8414618 21.3890924,12.8414618 C21.1385763,12.8414618 20.9584606,13.1492736 20.853317,13.7566686 L20.8487455,13.780745 C20.815831,13.9596416 20.7862689,14.125738 20.7597544,14.2881773 C20.5330099,15.6568733 20.4040946,17.059398 20.3763611,18.4567418 C20.3187606,21.293182 20.6732014,24.075679 21.4290165,26.7271273 C21.524103,27.0611489 21.6289418,27.40218 21.7401808,27.7410778 C21.4189593,28.6160557 21.0291659,29.5017004 20.5817721,30.3724117 C20.1359021,31.2394658 19.6318222,32.0976817 19.0826371,32.9226783 C18.8071303,33.3365481 18.5203472,33.7418845 18.2289927,34.1271064 C18.0808773,34.3245936 17.9287999,34.5187284 17.778856,34.7046345 L17.5484542,34.9841033 L17.2735569,35.2983151 L18.7925016,36.6423252 L18.9826745,36.4122282 L19.3560106,35.930396 C19.510526,35.7228516 19.6683939,35.50525 19.8232141,35.2815531 C20.1212734,34.855188 20.4129328,34.4074894 20.6933158,33.951867 C21.2489009,33.0464126 21.7551142,32.1077389 22.1967175,31.1623604 C22.3558044,30.8219389 22.5112341,30.4705458 22.6584352,30.1142764 C22.740112,30.2916492 22.8111221,30.4394598 22.8824369,30.5790418 C23.0534096,30.916111 23.2246871,31.2178275 23.4063265,31.5018677 C23.5053749,31.6569927 23.6092995,31.8087653 23.7150527,31.9516997 C23.8168439,32.0876245 23.9229018,32.2259874 24.098446,32.4219508 C24.4385628,32.7974203 24.8000131,33.0848129 25.1730445,33.2771191 C25.5920952,33.495635 26.0510701,33.5952929 26.4746923,33.5614641 C26.8992288,33.5300734 27.3240701,33.3670245 27.7025872,33.0906034 C28.0341706,32.8501445 28.3355824,32.5249611 28.5985939,32.1238914 C28.6592419,32.0312431 28.7171471,31.9364615 28.7704809,31.8422893 C28.8247289,31.7450696 28.8597768,31.6771071 28.9027485,31.5923827 C28.9789396,31.4390863 29.0490353,31.2815232 29.1169977,31.1105505 C29.2389034,30.8033482 29.3397804,30.4885268 29.4254191,30.1481053 C29.5808488,29.5269959 29.6689257,28.8827244 29.6884306,28.2341862 C29.703364,27.7145633 29.671059,27.2086547 29.594868,26.7295655 C29.6259539,26.6987843 29.6570399,26.6670888 29.6884306,26.6356981 C30.2705302,26.0289126 30.6962857,25.4157271 31.0693171,24.8427704 C31.7986178,23.700819 32.2676498,22.7539167 32.5778998,22.1264073 C32.8342064,21.5976414 32.9826266,21.2709342 33.0295603,21.1627429 C33.0365699,21.148419 33.0408366,21.1392761 33.0426651,21.1356189 L33.11398,21.0225514 L32.9308167,21.0228562 Z" id="Combined-Shape" opacity="0.802176339"></path>
            <path d="M15.3790819,47.6646703 C12.3503354,49.4134072 8.5645548,47.2276385 8.5645548,43.7301647 L8.5645548,4.60789175 C8.5645548,1.11072279 12.3503354,-1.07504591 15.3790819,0.673995717 L49.2600205,20.2346751 C52.2887669,21.9834119 52.2887669,26.3546446 49.2600205,28.1033814 L15.3790819,47.6646703 Z M22.648378,24.431034 C22.5813299,24.1771654 22.517939,23.9239064 22.4585099,23.6739998 C22.0412878,21.9155105 21.7606,20.0726015 21.6246751,18.1961684 C21.5515317,17.1773418 21.5198363,16.1414483 21.5308078,15.1122597 C22.1083359,16.3761167 22.5081865,17.6835551 22.7215214,19.0034887 C23.0086093,20.7494827 22.9842281,22.5734963 22.648378,24.431034 Z M27.7830449,26.5674309 C27.6919204,26.5726119 27.6193866,26.5570689 27.5599575,26.5217163 C27.5014428,26.4866684 27.4496329,26.4299823 27.4008706,26.3483055 C27.295727,26.1748946 27.2271551,25.8948164 27.2210598,25.6153476 C27.2183169,25.4775942 27.2295932,25.3374027 27.2533648,25.2109255 C27.2558029,25.1953826 27.2597648,25.1798396 27.2628125,25.1636871 C27.2914603,25.1993445 27.3194986,25.236221 27.3463179,25.2740117 C27.4206803,25.3785458 27.489557,25.4949658 27.5502051,25.6208334 C27.6794251,25.8911592 27.7787782,26.2068949 27.8449121,26.5613356 C27.82175,26.5640785 27.8022451,26.5662119 27.7830449,26.5674309 Z M32.9308167,21.0228562 L32.9116165,21.0594279 C32.1359917,22.2321605 31.2021943,23.5907992 30.1568531,24.7821223 C29.8831749,25.091458 29.6314397,25.3535552 29.3879331,25.5839569 C29.3662948,25.6037666 29.3443518,25.623881 29.3236279,25.6433859 C29.1831316,25.2444496 29.009416,24.8939708 28.7933382,24.575797 C28.7003851,24.4398722 28.5967653,24.3085188 28.4861359,24.1847845 C28.3492968,24.0333168 28.2289149,23.9193349 28.0920758,23.8157151 C27.9241507,23.6907618 27.7287969,23.5661133 27.4414043,23.5024176 C27.2759173,23.4676744 27.096716,23.4670649 26.9385434,23.5024176 C26.774885,23.5365511 26.6103124,23.6130469 26.4746923,23.7181906 C26.2311857,23.9092777 26.1135467,24.1210888 26.0306509,24.3036426 C25.9608599,24.4630342 25.9127072,24.6279117 25.877964,24.8241798 C25.8264589,25.123763 25.8206684,25.4282224 25.8599829,25.7555391 C25.8999071,26.076151 25.9773172,26.3629341 26.0973942,26.6323457 C26.2497763,26.9733768 26.4484826,27.2345597 26.703875,27.4308278 C26.8544285,27.5457239 27.0272298,27.6341055 27.2027739,27.6862202 C27.3713085,27.7368111 27.5550813,27.757535 27.7367208,27.747173 C27.8028546,27.7432111 27.8674646,27.735592 27.9348175,27.7246205 C27.9271984,28.2095003 27.8705122,28.7010849 27.7659781,29.1893171 C27.6318819,29.8140837 27.4264708,30.3809451 27.1753451,30.8277294 L27.0991541,30.9551208 C27.0735539,30.9929116 27.0479537,31.0303976 27.0205249,31.0663597 C26.9653626,31.142246 26.9056288,31.2095989 26.8461998,31.2681136 C26.7099702,31.3997717 26.5597215,31.4851057 26.4109966,31.5152774 C26.2628812,31.5466681 26.0931275,31.5189345 25.9376978,31.4390863 C25.8051254,31.3711239 25.6746863,31.2696374 25.5402853,31.1285316 C25.5098089,31.0977504 25.4817706,31.0657502 25.4537323,31.0334452 C25.4259988,31.0017497 25.3802841,30.9459779 25.3415791,30.8963013 C25.2605118,30.792072 25.1806636,30.6829664 25.1059964,30.5720322 C24.9621477,30.3586973 24.8167752,30.1185431 24.6750598,29.857665 C24.4321628,29.4111855 24.1947515,28.9068008 23.9509401,28.3164725 C23.8326916,28.0293847 23.7150527,27.7288872 23.599547,27.4216849 C23.8165391,26.6542887 23.9896452,25.8795782 24.1155128,25.1201058 C24.479706,22.9322038 24.4553248,20.793064 24.0423694,18.761506 C23.6437378,16.768653 22.8635415,14.8483339 21.719152,13.0511395 C21.6225418,12.916129 21.5055123,12.8414618 21.3890924,12.8414618 C21.1385763,12.8414618 20.9584606,13.1492736 20.853317,13.7566686 L20.8487455,13.780745 C20.815831,13.9596416 20.7862689,14.125738 20.7597544,14.2881773 C20.5330099,15.6568733 20.4040946,17.059398 20.3763611,18.4567418 C20.3187606,21.293182 20.6732014,24.075679 21.4290165,26.7271273 C21.524103,27.0611489 21.6289418,27.40218 21.7401808,27.7410778 C21.4189593,28.6160557 21.0291659,29.5017004 20.5817721,30.3724117 C20.1359021,31.2394658 19.6318222,32.0976817 19.0826371,32.9226783 C18.8071303,33.3365481 18.5203472,33.7418845 18.2289927,34.1271064 C18.0808773,34.3245936 17.9287999,34.5187284 17.778856,34.7046345 L17.5484542,34.9841033 L17.2735569,35.2983151 L18.7925016,36.6423252 L18.9826745,36.4122282 L19.3560106,35.930396 C19.510526,35.7228516 19.6683939,35.50525 19.8232141,35.2815531 C20.1212734,34.855188 20.4129328,34.4074894 20.6933158,33.951867 C21.2489009,33.0464126 21.7551142,32.1077389 22.1967175,31.1623604 C22.3558044,30.8219389 22.5112341,30.4705458 22.6584352,30.1142764 C22.740112,30.2916492 22.8111221,30.4394598 22.8824369,30.5790418 C23.0534096,30.916111 23.2246871,31.2178275 23.4063265,31.5018677 C23.5053749,31.6569927 23.6092995,31.8087653 23.7150527,31.9516997 C23.8168439,32.0876245 23.9229018,32.2259874 24.098446,32.4219508 C24.4385628,32.7974203 24.8000131,33.0848129 25.1730445,33.2771191 C25.5920952,33.495635 26.0510701,33.5952929 26.4746923,33.5614641 C26.8992288,33.5300734 27.3240701,33.3670245 27.7025872,33.0906034 C28.0341706,32.8501445 28.3355824,32.5249611 28.5985939,32.1238914 C28.6592419,32.0312431 28.7171471,31.9364615 28.7704809,31.8422893 C28.8247289,31.7450696 28.8597768,31.6771071 28.9027485,31.5923827 C28.9789396,31.4390863 29.0490353,31.2815232 29.1169977,31.1105505 C29.2389034,30.8033482 29.3397804,30.4885268 29.4254191,30.1481053 C29.5808488,29.5269959 29.6689257,28.8827244 29.6884306,28.2341862 C29.703364,27.7145633 29.671059,27.2086547 29.594868,26.7295655 C29.6259539,26.6987843 29.6570399,26.6670888 29.6884306,26.6356981 C30.2705302,26.0289126 30.6962857,25.4157271 31.0693171,24.8427704 C31.7986178,23.700819 32.2676498,22.7539167 32.5778998,22.1264073 C32.8342064,21.5976414 32.9826266,21.2709342 33.0295603,21.1627429 C33.0365699,21.148419 33.0408366,21.1392761 33.0426651,21.1356189 L33.11398,21.0225514 L32.9308167,21.0228562 Z" id="Combined-Shape"></path>
            <path d="M55.7366251,29.8643794 L55.7366251,18.7704165 L60.6862393,18.7704165 C63.3084488,18.7704165 64.4256031,19.949635 64.4256031,21.6719145 L64.4256031,21.7339787 C64.4256031,22.9752612 63.7894458,23.7976109 62.5481632,24.1234476 C63.913574,24.3561881 64.7669558,25.1785378 64.7669558,26.7146249 L64.7669558,26.7766891 C64.7669558,28.7627412 63.4791251,29.8643794 60.7327874,29.8643794 L55.7366251,29.8643794 Z M58.8398315,27.738683 L60.1586943,27.738683 C61.1672363,27.738683 61.6327173,27.2732021 61.6327173,26.4508524 L61.6327173,26.3887883 C61.6327173,25.5509225 61.1827524,25.1164736 60.0655981,25.1164736 L58.8398315,25.1164736 L58.8398315,27.738683 Z M58.8398315,23.1769696 L60.050082,23.1769696 C61.0431081,23.1769696 61.4154929,22.8356169 61.4154929,22.0442993 L61.4154929,21.9822352 C61.4154929,21.2219496 61.012076,20.8805969 60.050082,20.8805969 L58.8398315,20.8805969 L58.8398315,23.1769696 Z M70.1388283,30.0505718 C67.5941991,30.0505718 65.7322752,28.5610327 65.7322752,25.9077913 L65.7322752,25.783663 C65.7322752,23.1769696 67.6717792,21.5322702 70.1233123,21.5322702 C72.3421049,21.5322702 74.2505768,22.8045849 74.2505768,25.7215989 L74.2505768,26.4508524 L68.540677,26.4508524 C68.6182572,27.5214586 69.2388985,28.1420999 70.2319245,28.1420999 C71.1473704,28.1420999 71.5352712,27.723167 71.6438834,27.1801059 L74.2505768,27.1801059 C74.0023203,29.0109977 72.5903614,30.0505718 70.1388283,30.0505718 Z M68.5717091,24.8837332 L71.5507872,24.8837332 C71.5042391,23.9062231 71.0232421,23.363162 70.1233123,23.363162 C69.2854465,23.363162 68.7113534,23.9062231 68.5717091,24.8837332 Z M75.588281,29.8643794 L75.588281,18.1808073 L78.3501347,18.1808073 L78.3501347,29.8643794 L75.588281,29.8643794 Z M80.1378039,29.8643794 L80.1378039,21.7494947 L82.9151736,21.7494947 L82.9151736,23.363162 C83.4272026,22.1529115 84.2805844,21.6253664 85.537383,21.6408825 L85.537383,24.2320598 C83.8461355,24.1855117 82.9151736,24.7130568 82.9151736,26.0164035 L82.9151736,29.8643794 L80.1378039,29.8643794 Z M86.9216353,29.8643794 L86.9216353,21.7494947 L89.699005,21.7494947 L89.699005,29.8643794 L86.9216353,29.8643794 Z M88.3025622,20.9736931 C87.4336644,20.9736931 86.781991,20.3685678 86.781991,19.5462181 C86.781991,18.7238684 87.4336644,18.1032272 88.3025622,18.1032272 C89.1714599,18.1032272 89.8386493,18.7238684 89.8386493,19.5462181 C89.8386493,20.3685678 89.1714599,20.9736931 88.3025622,20.9736931 Z M94.1554317,30.0505718 C92.5883125,30.0505718 91.4246101,29.0885778 91.4246101,27.0404616 L91.4246101,21.7494947 L94.2019798,21.7494947 L94.2019798,26.5904967 C94.2019798,27.5059426 94.5588485,27.9559075 95.3501661,27.9559075 C96.1880319,27.9559075 96.731093,27.4593945 96.731093,26.4198203 L96.731093,21.7494947 L99.5084627,21.7494947 L99.5084627,29.8643794 L96.731093,29.8643794 L96.731093,28.6075808 C96.2966441,29.4454466 95.5053265,30.0505718 94.1554317,30.0505718 Z M101.218552,29.8643794 L101.218552,21.7494947 L103.995921,21.7494947 L103.995921,22.9907772 C104.43037,22.2149756 105.283752,21.5322702 106.540551,21.5322702 C107.611157,21.5322702 108.355926,21.9977512 108.743827,22.882165 C109.442049,21.9356871 110.404043,21.5322702 111.428101,21.5322702 C112.964188,21.5322702 114.081342,22.5252963 114.081342,24.5578965 L114.081342,29.8643794 L111.303973,29.8643794 L111.303973,25.0233774 C111.303973,24.2010277 110.900556,23.7976109 110.264398,23.7976109 C109.519629,23.7976109 109.023116,24.2786079 109.023116,25.1630217 L109.023116,29.8643794 L106.276778,29.8643794 L106.276778,25.0233774 C106.276778,24.2010277 105.873361,23.7976109 105.237204,23.7976109 C104.492434,23.7976109 103.995921,24.2786079 103.995921,25.1630217 L103.995921,29.8643794 L101.218552,29.8643794 Z" id="Belrium"></path>
        </g>
    </g>
</svg>