<?xml version="1.0" encoding="UTF-8"?>
<svg width="133px" height="55px" viewBox="0 0 133 55" version="1.1" xmlns="http://www.w3.org/2000/svg" xmlns:xlink="http://www.w3.org/1999/xlink">
    <!-- Generator: Sketch 52.5 (67469) - http://www.bohemiancoding.com/sketch -->
    <title>Group 3</title>
    <desc>Created with Sketch.</desc>
    <defs>
        <path d="M5.28320016,0.102720003 C2.23808007,0.105600003 0.0617600018,2.60224008 0.0563200017,5.32896016 C0.0563200017,6.19968018 0.280000008,7.09504021 0.763200023,7.93184024 L21.3017606,43.5065613 C22.3024007,45.2416013 24.0700807,46.1190414 25.8220808,46.1164814 C27.5744008,46.1190414 29.3414409,45.2416013 30.3417609,43.5065613 L50.8812815,7.93184024 C51.3651215,7.09504021 51.5881615,6.19968018 51.5881615,5.32896016 C51.5824015,2.60224008 49.4064015,0.105600003 46.3612814,0.102720003 L5.28320016,0.102720003 Z M1.54176005,7.48256022 C1.13728003,6.7817602 0.956160028,6.04704018 0.955520028,5.32896016 C0.958400029,3.07328009 2.75968008,1.00576003 5.28320016,1.00160003 L46.3612814,1.00160003 C48.8844815,1.00576003 50.6860815,3.07328009 50.6886415,5.32896016 C50.6883215,6.04704018 50.5068815,6.7817602 50.1024015,7.48256022 L29.5638409,43.0572813 C28.7283209,44.5014413 27.2828808,45.2144013 25.8220808,45.2176013 C24.3616007,45.2144013 22.9158407,44.5014413 22.0806407,43.0572813 L1.54176005,7.48256022 Z" id="path-1"></path>
    </defs>
    <g id="new" stroke="none" stroke-width="1" fill="none" fill-rule="evenodd">
        <g id="login" transform="translate(-1011.000000, -162.000000)">
            <g id="Group-3" transform="translate(1011.000000, 162.000000)">
                <g id="Group-5" transform="translate(0.689704, 0.090899)">
                    <path d="M51.6037455,29.6312649 L16.0290245,50.1704655 C12.8488644,52.0066255 8.87382426,49.7115855 8.87382426,46.0392654 L8.87382426,4.96118415 C8.87382426,1.28918404 12.8488644,-1.00585603 16.0290245,0.830624025 L51.6037455,21.3691846 C54.7839056,23.2053447 54.7839056,27.7951048 51.6037455,29.6312649" id="Fill-1" fill="#FFFFFE"></path>
                    <path d="M21.3711046,51.6015695 L0.831904025,16.0274885 C-1.00393603,12.8466884 1.29110404,8.87196826 4.96310415,8.87196826 L46.0411854,8.87196826 C49.7131855,8.87196826 52.0082255,12.8466884 50.1717455,16.0274885 L29.6331849,51.6015695 C27.7976648,54.7817296 23.2069447,54.7817296 21.3711046,51.6015695" id="Fill-3" fill="#0B0B0A"></path>
                </g>
                <g id="Group-8" transform="translate(0.369704, 8.410899)">
                    <mask id="mask-2" fill="white">
                        <use xlink:href="#path-1"></use>
                    </mask>
                    <use id="Clip-7" fill="#8D8D8D" xlink:href="#path-1"></use>
                    <path d="M5.28320016,0.102720003 C2.23808007,0.105600003 0.0617600018,2.60224008 0.0563200017,5.32896016 C0.0563200017,6.19968018 0.280000008,7.09504021 0.763200023,7.93184024 L21.3017606,43.5065613 C22.3024007,45.2416013 24.0700807,46.1190414 25.8220808,46.1164814 C27.5744008,46.1190414 29.3414409,45.2416013 30.3417609,43.5065613 L50.8812815,7.93184024 C51.3651215,7.09504021 51.5881615,6.19968018 51.5881615,5.32896016 C51.5824015,2.60224008 49.4064015,0.105600003 46.3612814,0.102720003 L5.28320016,0.102720003 Z M1.54176005,7.48256022 C1.13728003,6.7817602 0.956160028,6.04704018 0.955520028,5.32896016 C0.958400029,3.07328009 2.75968008,1.00576003 5.28320016,1.00160003 L46.3612814,1.00160003 C48.8844815,1.00576003 50.6860815,3.07328009 50.6886415,5.32896016 C50.6883215,6.04704018 50.5068815,6.7817602 50.1024015,7.48256022 L29.5638409,43.0572813 C28.7283209,44.5014413 27.2828808,45.2144013 25.8220808,45.2176013 C24.3616007,45.2144013 22.9158407,44.5014413 22.0806407,43.0572813 L1.54176005,7.48256022 Z" id="Fill-6" mask="url(#mask-2)"></path>
                </g>
                <g id="Group-13" transform="translate(9.329704, 0.090899)">
                    <path d="M42.9637453,29.6312649 L7.38902422,50.1704655 C4.20886413,52.0066255 0.233824007,49.7115855 0.233824007,46.0392654 L0.233824007,4.96118415 C0.233824007,1.28918404 4.20886413,-1.00585603 7.38902422,0.830624025 L42.9637453,21.3691846 C46.1439054,23.2053447 46.1439054,27.7951048 42.9637453,29.6312649" id="Fill-9" fill="#DB0303"></path>
                    <path d="M15.0217284,25.7753288 C14.9513284,25.5087688 14.8847684,25.2428488 14.8223684,24.9804487 C14.3842884,23.1340487 14.0895684,21.1990086 13.9468484,19.2287686 C13.8700484,18.1590085 13.8367684,17.0713285 13.8482884,15.9906885 C14.4546884,17.3177285 14.8745284,18.6905286 15.0985284,20.0764486 C15.3999685,21.9097287 15.3743685,23.8249287 15.0217284,25.7753288 Z M20.4130886,28.0185288 C20.3174086,28.0239688 20.2412486,28.0076488 20.1788486,27.9705288 C20.1174086,27.9337288 20.0630086,27.8742088 20.0118086,27.7884488 C19.9014086,27.6063688 19.8294086,27.3122888 19.8230086,27.0188488 C19.8201286,26.8742088 19.8319686,26.7270088 19.8569286,26.5942088 C19.8594886,26.5778888 19.8636486,26.5615688 19.8668486,26.5446088 C19.8969286,26.5820488 19.9263686,26.6207688 19.9545286,26.6604488 C20.0326086,26.7702088 20.1049286,26.8924488 20.1686086,27.0246088 C20.3042886,27.3084488 20.4086086,27.6399688 20.4780486,28.0121288 C20.4537286,28.0150088 20.4332486,28.0172488 20.4130886,28.0185288 Z M25.8182088,22.1967687 L25.7980488,22.2351687 C24.9836487,23.4665287 24.0031687,24.8930887 22.9055687,26.1439688 C22.6182087,26.4687688 22.3538887,26.7439688 22.0982087,26.9858888 C22.0754887,27.0066888 22.0524487,27.0278088 22.0306887,27.0482888 C21.8831687,26.6294088 21.7007686,26.2614088 21.4738886,25.9273288 C21.3762886,25.7846088 21.2674886,25.6466888 21.1513286,25.5167688 C21.0076486,25.3577288 20.8812486,25.2380488 20.7375686,25.1292487 C20.5612486,24.9980487 20.3561286,24.8671687 20.0543686,24.8002887 C19.8806086,24.7638087 19.6924486,24.7631687 19.5263686,24.8002887 C19.3545286,24.8361287 19.1817286,24.9164487 19.0393286,25.0268487 C18.7836486,25.2274888 18.6601286,25.4498888 18.5730886,25.6415688 C18.4998086,25.8089288 18.4492485,25.9820488 18.4127685,26.1881288 C18.3586885,26.5026888 18.3526085,26.8223688 18.3938885,27.1660488 C18.4358085,27.5026888 18.5170886,27.8038088 18.6431686,28.0866888 C18.8031686,28.4447688 19.0118086,28.7190089 19.2799686,28.9250889 C19.4380486,29.0457289 19.6194886,29.1385289 19.8038086,29.1932489 C19.9807686,29.2463689 20.1737286,29.2681289 20.3644486,29.2572489 C20.4338886,29.2530889 20.5017286,29.2450889 20.5724486,29.2335689 C20.5644486,29.7426889 20.5049286,30.2588489 20.3951686,30.7714889 C20.2543686,31.4274889 20.0386886,32.022689 19.7750086,32.491809 L19.6950086,32.625569 C19.6681286,32.665249 19.6412486,32.704609 19.6124486,32.742369 C19.5545286,32.822049 19.4918086,32.892769 19.4294086,32.954209 C19.2863686,33.092449 19.1286086,33.182049 18.9724486,33.213729 C18.8169286,33.246689 18.6386886,33.217569 18.4754886,33.133729 C18.3362885,33.062369 18.1993285,32.955809 18.0582085,32.807649 C18.0262085,32.775329 17.9967685,32.741729 17.9673285,32.707809 C17.9382085,32.674529 17.8902085,32.615969 17.8495685,32.563809 C17.7644485,32.454369 17.6806085,32.339809 17.6022085,32.223329 C17.4511685,31.999329 17.2985285,31.7471689 17.1497285,31.4732489 C16.8946885,31.0044489 16.6454085,30.4748489 16.3894085,29.8550089 C16.2652485,29.5535689 16.1417285,29.2380489 16.0204485,28.9154889 C16.2482885,28.1097288 16.4300485,27.2962888 16.5622085,26.4988488 C16.9446085,24.2015687 16.9190085,21.9554887 16.4854085,19.8223686 C16.0668485,17.7298885 15.2476485,15.7135685 14.0460484,13.8265284 C13.9446084,13.6847684 13.8217284,13.6063684 13.6994884,13.6063684 C13.4364484,13.6063684 13.2473284,13.9295684 13.1369284,14.5673284 L13.1321284,14.5926084 C13.0975684,14.7804484 13.0665284,14.9548484 13.0386884,15.1254085 C12.8006084,16.5625285 12.6652484,18.0351685 12.6361284,19.5023686 C12.5756484,22.4806087 12.9478084,25.4022088 13.7414084,28.1862088 C13.8412484,28.5369289 13.9513284,28.8950089 14.0681284,29.2508489 C13.7308484,30.1695689 13.3215684,31.0994889 12.8518084,32.013729 C12.3836484,32.924129 11.8543684,33.825249 11.2777283,34.691489 C10.9884483,35.126049 10.6873283,35.5516491 10.3814083,35.9561291 C10.2258883,36.1634891 10.0662083,36.3673291 9.9087683,36.5625291 L9.66684829,36.8559691 L9.37820828,37.1858891 L10.9730883,38.5970892 L11.1727683,38.3554891 L11.5647683,37.8495691 C11.7270083,37.6316491 11.8927684,37.4031691 12.0553284,37.1682891 C12.3682884,36.7206091 12.6745284,36.2505291 12.9689284,35.7721291 C13.5522884,34.821409 14.0838084,33.835809 14.5474884,32.843169 C14.7145284,32.485729 14.8777284,32.116769 15.0322884,31.7426889 C15.1180485,31.928929 15.1926085,32.084129 15.2674885,32.230689 C15.4470085,32.584609 15.6268485,32.901409 15.8175685,33.199649 C15.9215685,33.362529 16.0306885,33.521889 16.1417285,33.671969 C16.2486085,33.814689 16.3599685,33.959969 16.5442885,34.165729 C16.9014085,34.559969 17.2809285,34.861729 17.6726085,35.063649 C18.1126085,35.2930891 18.5945286,35.3977291 19.0393286,35.3622091 C19.4850886,35.3292491 19.9311686,35.158049 20.3286086,34.867809 C20.6767686,34.615329 20.9932486,34.273889 21.2694086,33.852769 C21.3330886,33.755489 21.3938886,33.655969 21.4498886,33.557089 C21.5068486,33.455009 21.5436486,33.383649 21.5887686,33.294689 C21.6687686,33.133729 21.7423686,32.968289 21.8137287,32.788769 C21.9417287,32.466209 22.0476487,32.135649 22.1375687,31.7782089 C22.3007687,31.1260489 22.3932487,30.4495689 22.4137287,29.7686089 C22.4294087,29.2230089 22.3954887,28.6918089 22.3154887,28.1887688 C22.3481287,28.1564488 22.3807687,28.1231688 22.4137287,28.0902088 C23.0249287,27.4530888 23.4719687,26.8092488 23.8636487,26.2076488 C24.6294087,25.0086087 25.1218887,24.0143687 25.4476488,23.3554887 C25.7167688,22.8002887 25.8726088,22.4572487 25.9218888,22.3436487 C25.9292488,22.3286087 25.9337288,22.3190087 25.9356488,22.3151687 L26.0105288,22.1964487 L25.8182088,22.1967687 Z" id="Fill-11" fill="#FFFFFE"></path>
                </g>
                <path d="M59.0938336,30.9212995 L59.0938336,19.2727251 L64.2908899,19.2727251 C67.0441893,19.2727251 68.2171926,20.5108952 68.2171926,22.3192753 L68.2171926,22.3844422 C68.2171926,23.6877792 67.5492324,24.5512399 66.2458954,24.8933659 C67.6795661,25.1377416 68.5756103,26.0012023 68.5756103,27.6140819 L68.5756103,27.6792487 C68.5756103,29.7645879 67.2233982,30.9212995 64.3397651,30.9212995 L59.0938336,30.9212995 Z M62.3521761,28.6893349 L63.7369717,28.6893349 C64.795933,28.6893349 65.2846844,28.2005835 65.2846844,27.3371227 L65.2846844,27.2719559 C65.2846844,26.3922034 64.8122247,25.9360355 63.6392214,25.9360355 L62.3521761,25.9360355 L62.3521761,28.6893349 Z M62.3521761,23.8995714 L63.6229297,23.8995714 C64.6655993,23.8995714 65.0566004,23.5411537 65.0566004,22.7102764 L65.0566004,22.6451096 C65.0566004,21.8468156 64.6330159,21.488398 63.6229297,21.488398 L62.3521761,21.488398 L62.3521761,23.8995714 Z" id="Combined-Shape" fill="#DB0303"></path>
                <path d="M74.2160345,31.1168 C71.5441937,31.1168 69.5891882,29.5527956 69.5891882,26.7669128 L69.5891882,26.6365791 C69.5891882,23.8995714 71.6256523,22.1726499 74.1997428,22.1726499 C76.5294577,22.1726499 78.5333384,23.5085703 78.5333384,26.5714123 L78.5333384,27.3371227 L72.5379882,27.3371227 C72.6194467,28.4612509 73.2711152,29.1129194 74.3137848,29.1129194 C75.2749959,29.1129194 75.6822887,28.6730432 75.7963307,28.1028332 L78.5333384,28.1028332 C78.272671,30.0252553 76.7901251,31.1168 74.2160345,31.1168 Z M72.5705716,25.6916598 L75.6985804,25.6916598 C75.6497052,24.6652819 75.1446622,24.095072 74.1997428,24.095072 C73.3199904,24.095072 72.717197,24.6652819 72.5705716,25.6916598 Z" id="Combined-Shape" fill="#DB0303"></path>
                <polygon id="Path" fill="#DB0303" points="79.9379173 30.9212995 79.9379173 18.65364 82.8378422 18.65364 82.8378422 30.9212995"></polygon>
                <path d="M84.9755482,30.9212995 L84.9755482,19.2727251 L90.1726045,19.2727251 C92.9259039,19.2727251 94.0989072,20.5108952 94.0989072,22.3192753 L94.0989072,22.3844422 C94.0989072,23.6877792 93.430947,24.5512399 92.12761,24.8933659 C93.5612807,25.1377416 94.4573249,26.0012023 94.4573249,27.6140819 L94.4573249,27.6792487 C94.4573249,29.7645879 93.1051127,30.9212995 90.2214796,30.9212995 L84.9755482,30.9212995 Z M88.2338907,28.6893349 L89.6186863,28.6893349 C90.6776476,28.6893349 91.166399,28.2005835 91.166399,27.3371227 L91.166399,27.2719559 C91.166399,26.3922034 90.6939393,25.9360355 89.520936,25.9360355 L88.2338907,25.9360355 L88.2338907,28.6893349 Z M88.2338907,23.8995714 L89.5046443,23.8995714 C90.5473139,23.8995714 90.938315,23.5411537 90.938315,22.7102764 L90.938315,22.6451096 C90.938315,21.8468156 90.5147305,21.488398 89.5046443,21.488398 L88.2338907,21.488398 L88.2338907,23.8995714 Z M100.130333,31.1168 C97.5073668,31.1168 95.4709028,29.5202122 95.4709028,26.7669128 L95.4709028,26.6365791 C95.4709028,23.8995714 97.5073668,22.1726499 100.146624,22.1726499 C102.76959,22.1726499 104.789762,23.8506963 104.789762,26.5551205 L104.789762,26.6854542 C104.789762,29.4550454 102.753298,31.1168 100.130333,31.1168 Z M100.146624,28.9500023 C101.238169,28.9500023 101.824671,28.1354167 101.824671,26.7180377 L101.824671,26.587704 C101.824671,25.1540333 101.254461,24.3557394 100.146624,24.3557394 C99.0550795,24.3557394 98.4522861,25.1214498 98.4522861,26.5551205 L98.4522861,26.6854542 C98.4522861,28.1517084 99.0224961,28.9500023 100.146624,28.9500023 Z M110.332436,31.1168 C107.709471,31.1168 105.673006,29.5202122 105.673006,26.7669128 L105.673006,26.6365791 C105.673006,23.8995714 107.709471,22.1726499 110.348728,22.1726499 C112.971694,22.1726499 114.991866,23.8506963 114.991866,26.5551205 L114.991866,26.6854542 C114.991866,29.4550454 112.955402,31.1168 110.332436,31.1168 Z M110.348728,28.9500023 C111.440273,28.9500023 112.026774,28.1354167 112.026774,26.7180377 L112.026774,26.587704 C112.026774,25.1540333 111.456564,24.3557394 110.348728,24.3557394 C109.257183,24.3557394 108.65439,25.1214498 108.65439,26.5551205 L108.65439,26.6854542 C108.65439,28.1517084 109.2246,28.9500023 110.348728,28.9500023 Z" id="Combined-Shape" fill="#0B0B0A"></path>
                <polygon id="Path" fill="#0B0B0A" points="116.331278 30.9212995 116.331278 18.65364 119.247495 18.65364 119.247495 25.7731183 121.544626 22.4007339 124.574885 22.4007339 121.789002 26.2292863 124.802969 30.9212995 121.544626 30.9212995 119.247495 27.1904973 119.247495 30.9212995"></polygon>
                <path d="M128.89568,31.1168 C126.468215,31.1168 125.050836,30.1067139 124.985669,28.2168752 L127.673802,28.2168752 C127.771552,28.8359603 128.048511,29.1780863 128.879388,29.1780863 C129.596224,29.1780863 129.922058,28.9011271 129.922058,28.4775426 C129.922058,28.0702498 129.514765,27.8747493 128.341762,27.7118321 C126.060922,27.4185813 125.099711,26.7506211 125.099711,24.9748244 C125.099711,23.0849858 126.777758,22.1726499 128.749055,22.1726499 C130.850686,22.1726499 132.31694,22.8894852 132.51244,24.9259493 L129.873183,24.9259493 C129.759141,24.3557394 129.449598,24.0787803 128.781638,24.0787803 C128.146261,24.0787803 127.820427,24.3557394 127.820427,24.7467405 C127.820427,25.1540333 128.211428,25.3169504 129.254098,25.4472841 C131.616396,25.7405349 132.756816,26.35962 132.756816,28.1842918 C132.756816,30.2044641 131.257979,31.1168 128.89568,31.1168 Z" id="Path" fill="#0B0B0A"></path>
            </g>
        </g>
    </g>
</svg>